<svg width="218" height="67" viewBox="0 0 218 67" fill="none" xmlns="http://www.w3.org/2000/svg">
<rect width="217.129" height="66.5394" transform="translate(0.0185547 0.000610352)" fill="white"/>
<path d="M78.6774 21.1752H84.5989L97.8611 43.0605H91.5747L81.6787 26.3628L76.4063 35.198H84.9233L87.4785 39.3318H74.135L71.7422 43.0199H65.4557L78.6774 21.1752ZM182.991 43.101H189.278L191.671 39.4129H205.014L202.459 35.2791H193.942L199.214 26.4439L209.11 43.1416H215.397L202.134 21.2562H196.213L182.991 43.101ZM97.4961 32.1583V35.0764C97.6178 40.8315 100.862 43.2631 105.892 43.1416H122.439V38.6429H105.932C103.174 38.7239 102.971 36.8192 102.89 34.9143V32.1584V29.2809C102.971 27.5787 103.174 25.6334 105.932 25.6739H122.439V21.1753H105.892C100.862 21.0537 97.6584 23.526 97.4961 29.2405V32.1583ZM160.32 25.8765H173.622C175.488 25.8765 176.421 26.6871 176.421 28.2677C176.421 29.8888 175.488 30.6589 173.622 30.6589H161.698L162.753 35.3602H172.933C174.92 35.3196 176.056 36.6976 176.218 38.6025L176.38 43.1011H181.653C181.653 43.1011 181.612 38.8862 181.49 38.0351C181.369 37.184 181.004 34.8333 178.935 33.6985C183.802 30.4968 182.018 21.2159 175.042 21.2159H154.966V43.101H160.319L160.32 25.8765ZM138.54 43.101H143.204C148.964 42.9795 151.397 39.7372 151.275 34.7117V21.1752H146.003V35.8059C146.084 38.5618 144.137 38.7644 142.271 38.8455H138.54H134.606C132.903 38.7645 130.956 38.5618 130.997 35.8059V21.1752H125.602V34.7522C125.481 39.7777 127.955 42.9795 133.673 43.101H138.54ZM51.1123 30.9242C50.6662 22.7374 47.8677 16.7392 44.0553 13.4564C39.9183 9.93046 32.2124 8.55248 26.2504 8.59303C20.2885 8.55248 12.5826 9.93046 8.44566 13.4564C4.63328 16.7393 1.83475 22.7375 1.38865 30.9242C0.983031 38.6244 2.64589 47.0138 7.02611 51.7557C11.244 56.4164 19.68 57.8754 26.2097 57.8754C32.7395 57.9159 41.1754 56.4164 45.3934 51.7557C49.7737 46.9733 51.477 38.5839 51.1123 30.9242ZM24.8308 10.6599C25.6419 10.6194 25.8446 10.6194 26.2097 10.6194C26.5748 10.6194 26.737 10.6194 27.5887 10.6599L27.6293 28.5734C27.3859 28.5734 25.0337 28.5734 24.7903 28.5734C24.7903 28.5734 24.7903 10.6599 24.8308 10.6599ZM4.67386 38.4621C4.43048 35.3821 3.49769 24.1557 7.95898 17.7522C9.86522 14.9558 12.6637 13.0915 15.5027 12.1188C19.4367 10.7409 24.1414 10.6598 24.1414 10.6598C22.3163 15.1585 18.5445 24.8042 17.8144 26.9521C16.9222 29.5864 16.1516 31.086 15.381 35.8278C14.8942 39.7186 14.0426 49.4048 13.7992 53.6198C8.52673 51.1071 5.36326 46.3248 4.67386 38.4621ZM26.1693 55.8084C22.4785 55.768 17.9361 55.4032 14.3265 53.8631C15.5433 50.6208 21.3429 36.6791 24.547 31.2483C24.7903 31.2483 27.5887 31.2483 27.8321 31.2483C30.9956 36.6791 36.8358 50.6208 38.0527 53.8631C34.4024 55.4436 29.9005 55.768 26.1693 55.8084ZM47.7052 38.422C47.0159 46.325 43.8523 51.0668 38.5799 53.6201C38.3366 49.4051 37.4849 39.7189 36.9982 35.8281C36.2275 31.0457 35.457 29.5867 34.5647 26.9524C33.8347 24.8043 30.0628 15.1586 28.2377 10.66C28.2377 10.66 32.9424 10.741 36.8764 12.119C39.7154 13.0917 42.5139 14.9964 44.4201 17.7524C48.8814 24.1559 47.9485 35.3821 47.7052 38.422Z" fill="#5F5F5F"/>
</svg>
