<svg width="112" height="112" viewBox="0 0 112 112" fill="none" xmlns="http://www.w3.org/2000/svg">
<rect width="112" height="112" rx="16" fill="#ECF5FF"/>
<path d="M75.5 48C75.5 48.82 74.82 49.5 74 49.5H38C37.18 49.5 36.5 48.82 36.5 48C36.5 47.18 37.18 46.5 38 46.5H40.04L40.8 42.88C41.52 39.38 43.02 36.16 48.98 36.16H63.02C68.98 36.16 70.48 39.38 71.2 42.88L71.96 46.5H74C74.82 46.5 75.5 47.18 75.5 48Z" fill="#1572D3"/>
<path d="M76.3602 59.32C76.0602 56.02 75.1802 52.5 68.7602 52.5H43.2402C36.8202 52.5 35.9602 56.02 35.6402 59.32L34.5202 71.5C34.3802 73.02 34.8802 74.54 35.9202 75.68C36.9802 76.84 38.4802 77.5 40.0802 77.5H43.8402C47.0802 77.5 47.7002 75.64 48.1002 74.42L48.5002 73.22C48.9602 71.84 49.0802 71.5 50.8802 71.5H61.1202C62.9202 71.5 62.9802 71.7 63.5002 73.22L63.9002 74.42C64.3002 75.64 64.9202 77.5 68.1602 77.5H71.9202C73.5002 77.5 75.0202 76.84 76.0802 75.68C77.1202 74.54 77.6202 73.02 77.4802 71.5L76.3602 59.32ZM50.0002 63.5H44.0002C43.1802 63.5 42.5002 62.82 42.5002 62C42.5002 61.18 43.1802 60.5 44.0002 60.5H50.0002C50.8202 60.5 51.5002 61.18 51.5002 62C51.5002 62.82 50.8202 63.5 50.0002 63.5ZM68.0002 63.5H62.0002C61.1802 63.5 60.5002 62.82 60.5002 62C60.5002 61.18 61.1802 60.5 62.0002 60.5H68.0002C68.8202 60.5 69.5002 61.18 69.5002 62C69.5002 62.82 68.8202 63.5 68.0002 63.5Z" fill="#1572D3"/>
</svg>
