<svg width="260" height="49" viewBox="0 0 260 49" fill="none" xmlns="http://www.w3.org/2000/svg">
<path d="M19.7515 -0.000183642C19.807 0.00920398 19.8625 0.0258457 19.9179 0.0266991C20.7355 0.0352333 21.5527 0.0463277 22.3702 0.0638229C23.4861 0.0877186 24.6011 0.128256 25.7157 0.168367C26.7444 0.205491 27.7728 0.26523 28.7999 0.339051C30.2371 0.442315 31.673 0.555393 33.1067 0.704741C34.8391 0.88524 36.5596 1.12548 38.2468 1.5667C39.9473 2.01175 41.5487 2.67102 42.9351 3.78175C44.298 4.8737 45.2351 6.26648 45.838 7.89438C46.3001 9.14208 46.5438 10.4346 46.653 11.7587C46.7635 13.0973 46.8237 14.4371 46.8672 15.7791C46.9159 17.2786 46.9714 18.778 46.9381 20.2775C46.9074 21.6763 46.8438 23.0742 46.7422 24.4704C46.6739 25.4121 46.5993 26.3534 46.5122 27.293C46.4171 28.3176 46.2929 29.3391 46.1892 30.3632C46.0522 31.7202 45.8504 33.0677 45.6195 34.4106C45.2534 36.5411 44.7939 38.6427 43.984 40.664C42.8161 43.5776 40.7201 45.4606 37.7933 46.4852C36.3254 46.9989 34.811 47.3117 33.2791 47.5473C31.8752 47.7632 30.4615 47.8882 29.044 47.9816C28.0446 48.0474 27.0457 48.1063 26.0451 48.1506C24.6677 48.2121 23.2902 48.2522 21.912 48.2846C21.1797 48.3017 20.4475 48.3013 19.7157 48.3187C18.4219 48.3495 17.1281 48.3623 15.8339 48.3418C14.3839 48.3192 12.934 48.2991 11.4844 48.2616C10.3622 48.233 9.24038 48.1899 8.11941 48.134C6.99204 48.0777 5.86468 48.0119 4.73902 47.9245C2.48641 47.7495 0.242345 47.5084 -1.94582 46.9076C-3.44016 46.4971 -4.88202 45.965 -6.16599 45.0681C-7.84722 43.8942 -8.9268 42.2812 -9.66501 40.3943C-10.332 38.69 -10.739 36.923 -11.0697 35.133C-11.3215 33.7718 -11.5272 32.4029 -11.6949 31.0289C-11.8015 30.1554 -11.8788 29.2785 -11.9675 28.4029C-12.0499 27.5909 -12.1344 26.7793 -12.2086 25.9664C-12.262 25.3797 -12.3051 24.7917 -12.3435 24.2041C-12.489 21.9767 -12.5474 19.7458 -12.541 17.5141C-12.5376 16.3279 -12.5436 15.1395 -12.4728 13.9541C-12.3733 12.2814 -12.2812 10.6074 -11.8387 8.97779C-11.3817 7.2957 -10.6255 5.77662 -9.39959 4.51782C-8.38616 3.47665 -7.17131 2.74057 -5.83016 2.19993C-4.34436 1.60083 -2.79028 1.26885 -1.21658 1.01539C0.108357 0.802031 1.44396 0.669751 2.77999 0.553259C3.84079 0.460663 4.90244 0.380015 5.96666 0.322409C7.48447 0.240481 9.00142 0.148738 10.5214 0.106494C11.7861 0.0715036 13.0505 0.0275525 14.3157 0.0271258C14.407 0.0271258 14.5009 0.0424874 14.5883 -0.000610352C16.3093 -0.000183642 18.0306 -0.000183642 19.7515 -0.000183642ZM17.1652 46.2407C17.1652 46.2402 17.1652 46.2398 17.1652 46.239C18.3246 46.239 19.4844 46.2641 20.6425 46.233C22.2192 46.1907 23.7972 46.1677 25.3722 46.0755C26.2371 46.0248 27.1037 46.0009 27.9674 45.9347C29.3188 45.831 30.6702 45.7222 32.0126 45.5234C33.2855 45.3352 34.5494 45.1129 35.7745 44.7028C38.1107 43.9211 39.8517 42.4673 40.8967 40.213C41.4493 39.0212 41.841 37.7765 42.1397 36.5006C42.6697 34.236 42.9654 31.9348 43.2142 29.6254C43.3776 28.1081 43.5129 26.5881 43.6242 25.0665C43.7113 23.8768 43.7774 22.6837 43.7945 21.4911C43.818 19.8636 43.8274 18.2353 43.7783 16.6069C43.7326 15.087 43.6652 13.5696 43.5078 12.0569C43.3853 10.8805 43.1766 9.72326 42.7619 8.6104C42.1457 6.95732 41.1224 5.63324 39.6132 4.69789C38.1922 3.81759 36.6202 3.36955 34.9932 3.08621C33.2437 2.78154 31.4801 2.59165 29.7118 2.43334C28.3536 2.31216 26.9928 2.23706 25.6329 2.15171C24.7043 2.09368 23.7741 2.05314 22.8443 2.02413C21.5868 1.98487 20.3289 1.95329 19.0713 1.93879C18.261 1.9294 17.4507 1.93324 16.64 1.95372C15.3039 1.98743 13.9666 1.9678 12.6306 2.01474C11.9415 2.03906 11.2519 2.04248 10.5628 2.06552C9.91671 2.08728 9.27067 2.11544 8.62549 2.15428C7.56255 2.21743 6.49962 2.28613 5.43754 2.36294C4.75096 2.41243 4.06481 2.47132 3.37994 2.54386C2.38486 2.64926 1.39105 2.76404 0.401508 2.91211C-0.885022 3.10456 -2.16174 3.33327 -3.39578 3.76425C-6.21975 4.75081 -8.01577 6.67228 -8.74417 9.585C-9.1201 11.0887 -9.23403 12.6245 -9.33217 14.1619C-9.39789 15.1898 -9.44611 16.2199 -9.4572 17.2496C-9.47768 19.1476 -9.48195 21.0452 -9.39362 22.9427C-9.33985 24.0991 -9.26262 25.2534 -9.17386 26.4076C-9.07913 27.6391 -8.96648 28.8685 -8.83292 30.0965C-8.6584 31.6988 -8.44547 33.2956 -8.14165 34.8787C-7.80583 36.6265 -7.37742 38.347 -6.64817 39.9804C-5.89929 41.6578 -4.79795 43.0216 -3.17518 43.9288C-2.02135 44.5739 -0.775784 44.958 0.512453 45.217C2.46508 45.6096 4.44416 45.7926 6.42665 45.9386C7.43241 46.0124 8.43944 46.0691 9.44691 46.108C10.9028 46.1643 12.3592 46.2099 13.8156 46.2364C14.9318 46.2569 16.049 46.2407 17.1652 46.2407Z" fill="#5F5F5F"/>
<path d="M61.8249 13.516C61.9917 13.5079 62.1586 13.493 62.3254 13.493C67.9891 13.4917 73.6524 13.4917 79.3162 13.4921C79.9157 13.4921 79.9165 13.493 79.917 14.0818C79.9178 14.7897 79.9089 15.4976 79.9208 16.2056C79.9255 16.4902 79.835 16.6156 79.5321 16.6446C78.7013 16.7244 77.876 16.8584 77.0448 16.9339C75.9661 17.0321 75.4165 17.5685 75.378 18.7193C75.3405 19.8377 75.3729 20.9587 75.3644 22.0784C75.3623 22.3553 75.5142 22.3911 75.7339 22.3899C76.4418 22.3856 77.1498 22.3886 77.8577 22.3886C81.4489 22.3886 85.04 22.389 88.6312 22.3882C89.1454 22.3882 89.1471 22.386 89.1476 21.8778C89.148 20.8354 89.1544 19.7925 89.1437 18.75C89.1322 17.6009 88.5869 17.0428 87.4369 16.9314C86.5677 16.8473 85.7023 16.7227 84.8339 16.6271C84.6185 16.6032 84.5425 16.4863 84.5421 16.2964C84.5395 15.4597 84.5408 14.6233 84.5416 13.7865C84.5421 13.58 84.6449 13.4802 84.8549 13.4917C84.9445 13.4968 85.0349 13.4908 85.125 13.4908C90.7627 13.4908 96.4008 13.4908 102.038 13.4908C102.628 13.4908 102.629 13.4917 102.629 14.0878C102.629 14.7829 102.621 15.478 102.633 16.1731C102.638 16.4612 102.575 16.6122 102.24 16.6459C101.282 16.7419 100.325 16.8597 99.3741 17.0082C98.6858 17.1157 98.2809 17.5484 98.1648 18.2371C98.1115 18.5529 98.0726 18.8712 98.073 19.1959C98.0782 22.9032 98.0782 26.61 98.073 30.3173C98.0726 30.642 98.1106 30.9608 98.1665 31.2757C98.3077 32.0728 98.8518 32.4867 99.7603 32.5733C100.617 32.6548 101.469 32.7811 102.324 32.8741C102.556 32.8993 102.631 33.0107 102.629 33.2257C102.625 34.0497 102.625 34.8733 102.629 35.6972C102.63 35.9281 102.527 36.0271 102.301 36.016C102.211 36.0117 102.121 36.0168 102.031 36.0168C96.3935 36.0168 90.7554 36.0168 85.1177 36.0168C84.5387 36.0168 84.5374 36.016 84.5361 35.4442C84.5348 34.7491 84.5412 34.054 84.534 33.3589C84.5306 33.0619 84.5967 32.8955 84.9521 32.8622C85.8721 32.776 86.7917 32.6646 87.704 32.517C88.5574 32.3787 89.0336 31.8453 89.0562 30.9889C89.0878 29.8057 89.0652 28.6207 89.0725 27.4366C89.0737 27.2023 88.9717 27.1127 88.7464 27.1191C88.4891 27.1263 88.2318 27.1195 87.9741 27.1195C83.9579 27.1195 79.9421 27.1195 75.9259 27.1195C75.3661 27.1195 75.3657 27.1204 75.3653 27.661C75.3648 28.6262 75.3691 29.5919 75.3627 30.5571C75.361 30.8434 75.4049 31.1229 75.4702 31.3969C75.6409 32.1112 76.1577 32.4837 77.0051 32.5707C77.8611 32.6582 78.7128 32.7824 79.5688 32.8694C79.8372 32.8967 79.9191 33.0158 79.917 33.2646C79.9101 34.0497 79.9059 34.8349 79.9187 35.62C79.9238 35.9238 79.803 36.0254 79.5069 36.0207C78.6961 36.0079 77.885 36.0168 77.0742 36.0168C72.1828 36.0168 67.2915 36.0173 62.4005 36.016C62.2081 36.016 62.0152 36.0011 61.8228 35.9929C61.8228 34.9629 61.8228 33.9332 61.8228 32.9031C62.8925 32.7734 63.9636 32.6544 65.0312 32.5097C65.7592 32.4107 66.1556 31.9567 66.2947 31.2462C66.3446 30.9911 66.3578 30.7376 66.3578 30.4803C66.3578 27.7165 66.3583 24.9527 66.3578 22.1893C66.3578 21.0325 66.3693 19.8753 66.3514 18.7189C66.3348 17.6444 65.8253 17.0718 64.8055 16.9476C63.8121 16.8268 62.817 16.7189 61.8228 16.6054C61.8249 15.5757 61.8249 14.5457 61.8249 13.516Z" fill="#5F5F5F"/>
<path d="M119.215 36.6881C118.526 36.6185 117.836 36.5601 117.149 36.4773C114.163 36.1171 111.27 35.4421 108.667 33.8539C105.72 32.0553 103.921 29.4673 103.544 26.0084C103.171 22.5857 104.079 19.5531 106.607 17.1162C108.147 15.6308 110.012 14.6873 112.03 14.0328C114.008 13.391 116.042 13.0526 118.11 12.8593C119.948 12.6878 121.788 12.6728 123.624 12.7373C126.956 12.8542 130.235 13.3065 133.322 14.6664C135.817 15.7652 137.879 17.3726 139.122 19.8659C140.026 21.6798 140.356 23.6077 140.189 25.6312C139.813 30.2017 137.208 33.0717 133.172 34.8361C131.033 35.7711 128.771 36.2426 126.457 36.485C125.794 36.5545 125.131 36.6206 124.468 36.6885C122.717 36.6881 120.966 36.6881 119.215 36.6881ZM129.774 24.6979C129.803 24.022 129.731 23.2808 129.616 22.5435C129.214 19.9444 127.854 18.1539 125.237 17.4981C123.059 16.9523 120.858 16.951 118.669 17.455C116.164 18.0319 114.67 19.6184 114.164 22.1232C113.801 23.9196 113.81 25.7238 114.191 27.5198C114.698 29.9 116.118 31.4319 118.488 32.0143C120.747 32.5695 123.025 32.5707 125.28 31.9968C127.544 31.4208 128.94 29.958 129.471 27.6755C129.693 26.7188 129.792 25.7506 129.774 24.6979Z" fill="#5F5F5F"/>
<path d="M259.562 35.9157C259.409 35.9238 259.255 35.9396 259.101 35.9396C253.013 35.9409 246.924 35.9409 240.836 35.9405C240.229 35.9405 240.229 35.9396 240.229 35.323C240.228 34.6151 240.237 33.9072 240.225 33.1993C240.221 32.9236 240.323 32.8208 240.602 32.7931C241.433 32.7111 242.26 32.5976 243.089 32.4965C243.308 32.4696 243.517 32.4073 243.714 32.3088C244.276 32.0263 244.452 31.5688 244.184 30.997C243.893 30.377 243.457 29.8449 243.085 29.274C242.955 29.0743 242.739 29.134 242.554 29.1336C239.413 29.1306 236.272 29.1315 233.131 29.1315C231.96 29.1315 230.789 29.1383 229.617 29.1268C229.343 29.1242 229.162 29.2032 229.02 29.4481C228.718 29.9717 228.384 30.4769 228.076 30.9975C227.71 31.6158 227.887 32.1453 228.546 32.4496C229.089 32.7005 229.684 32.6194 230.251 32.718C230.516 32.7641 230.787 32.7705 231.056 32.7961C231.624 32.8503 231.624 32.8507 231.624 33.4327C231.625 34.089 231.625 34.7457 231.624 35.402C231.623 35.9379 231.622 35.9401 231.093 35.9401C227.643 35.9409 224.193 35.9405 220.744 35.9405C219.714 35.9405 218.684 35.9298 217.655 35.9465C217.319 35.952 217.199 35.8423 217.207 35.5031C217.227 34.744 217.222 33.9844 217.21 33.2249C217.205 32.9377 217.298 32.8195 217.601 32.7909C218.457 32.7099 219.311 32.5942 220.165 32.4884C220.901 32.3971 221.401 31.9691 221.778 31.3572C223.115 29.1882 224.456 27.0218 225.797 24.855C226.995 22.9177 228.194 20.9813 229.391 19.0432C229.553 18.7816 229.723 18.5252 229.734 18.1962C229.754 17.5629 229.343 17.0837 228.71 17.0176C227.497 16.8909 226.284 16.7509 225.069 16.6378C224.783 16.6114 224.696 16.4992 224.699 16.2286C224.71 15.4695 224.717 14.7095 224.696 13.9504C224.686 13.5979 224.804 13.4832 225.159 13.4849C227.579 13.4972 229.999 13.4913 232.419 13.4913C235.457 13.4913 238.495 13.5135 241.532 13.4793C242.625 13.467 243.397 13.8958 243.981 14.791C246.56 18.7471 249.152 22.6958 251.739 26.6472C252.755 28.1978 253.773 29.7459 254.78 31.3017C255.312 32.1236 256.062 32.5174 257.032 32.5776C257.878 32.6301 258.72 32.7406 259.563 32.8255C259.562 33.856 259.562 34.8861 259.562 35.9157ZM235.975 25.0764C237.274 25.0764 238.574 25.0773 239.873 25.0743C239.97 25.0739 240.1 25.1238 240.156 25.0154C240.21 24.9109 240.102 24.8277 240.048 24.7457C238.708 22.7022 237.363 20.6617 236.027 18.6156C235.872 18.3792 235.794 18.3293 235.622 18.6114C234.379 20.6553 233.121 22.6903 231.869 24.7287C231.672 25.0496 231.687 25.0752 232.077 25.0756C233.376 25.0777 234.676 25.0764 235.975 25.0764Z" fill="#5F5F5F"/>
<path d="M170.71 29.9925C170.71 26.9488 170.717 24.0143 170.705 21.0803C170.702 20.194 170.782 19.3043 170.648 18.421C170.501 17.4511 170.041 17.0364 169.071 16.9374C168.215 16.8499 167.363 16.7253 166.507 16.6387C166.239 16.6113 166.148 16.4991 166.164 16.2457C166.216 15.3991 166.264 14.552 166.308 13.7046C166.318 13.5168 166.393 13.4161 166.588 13.4191C166.691 13.4204 166.794 13.4161 166.897 13.4161C171.312 13.4161 175.727 13.4157 180.142 13.4161C180.719 13.4161 180.72 13.4174 180.72 13.9888C180.721 14.7095 180.713 15.4306 180.724 16.1514C180.727 16.4193 180.641 16.538 180.356 16.567C179.577 16.6459 178.803 16.7769 178.023 16.852C176.697 16.9796 176.206 17.4887 176.169 18.8273C176.165 18.9689 176.168 19.1106 176.168 19.2518C176.168 24.6194 176.168 29.987 176.168 35.3546C176.168 35.9392 176.167 35.9405 175.572 35.9405C172.071 35.9405 168.57 35.9277 165.068 35.9473C164.044 35.9533 163.294 35.5782 162.67 34.7504C158.927 29.7873 155.154 24.8469 151.391 19.8991C151.308 19.7903 151.219 19.6871 151.123 19.5697C151.033 19.7122 151.072 19.8432 151.072 19.9657C151.069 23.338 151.067 26.7107 151.073 30.083C151.073 30.4551 151.101 30.8293 151.147 31.1989C151.249 32.0139 151.806 32.4777 152.715 32.5707C153.571 32.6582 154.422 32.7832 155.278 32.8694C155.55 32.8967 155.624 33.0192 155.621 33.2663C155.613 34.0386 155.604 34.8114 155.625 35.5829C155.634 35.9272 155.505 36.0237 155.175 36.022C152.974 36.0113 150.772 36.0164 148.571 36.0164C146.254 36.0164 143.937 36.01 141.621 36.0228C141.26 36.0249 141.114 35.9255 141.126 35.5453C141.15 34.7994 141.141 34.0523 141.13 33.306C141.125 33.0252 141.207 32.8937 141.515 32.8647C142.345 32.7862 143.171 32.6556 144.002 32.5741C145.14 32.4623 145.672 31.8756 145.68 30.6365C145.692 28.9117 145.684 27.1869 145.684 25.4617C145.684 23.3508 145.684 21.2399 145.684 19.1285C145.684 18.9996 145.688 18.8708 145.68 18.7423C145.611 17.545 145.096 17.0355 143.913 16.9284C143.082 16.8533 142.256 16.7253 141.426 16.6306C141.215 16.6067 141.134 16.5051 141.134 16.305C141.136 15.4682 141.136 14.6318 141.135 13.7951C141.135 13.5873 141.23 13.4861 141.44 13.4925C141.543 13.4959 141.646 13.4912 141.749 13.4912C146.641 13.4912 151.532 13.4912 156.423 13.4912C156.629 13.4912 156.836 13.4887 157.041 13.4964C157.829 13.5245 158.456 13.8138 158.952 14.4727C162.754 19.5207 166.574 24.5541 170.389 29.5919C170.472 29.7028 170.562 29.8086 170.71 29.9925Z" fill="#5F5F5F"/>
<path d="M194.868 35.9405C190.191 35.9405 186.329 35.9409 182.467 35.94C181.914 35.94 181.914 35.9383 181.913 35.3857C181.912 34.665 181.921 33.9439 181.908 33.2232C181.903 32.9347 182 32.8221 182.301 32.7905C183.259 32.6902 184.216 32.5763 185.167 32.4244C185.863 32.3134 186.267 31.8803 186.377 31.1954C186.432 30.8541 186.461 30.5046 186.462 30.1585C186.468 26.4509 186.464 22.7436 186.469 19.0359C186.469 18.7116 186.436 18.392 186.381 18.0767C186.286 17.5335 185.96 17.1789 185.429 17.0193C184.721 16.8064 183.981 16.8119 183.257 16.7112C181.981 16.5341 182.249 16.7987 182.221 15.5962C182.208 15.0172 182.227 14.4377 182.216 13.8582C182.211 13.5988 182.3 13.4673 182.572 13.4917C182.636 13.4976 182.7 13.4917 182.765 13.4917C190.18 13.4921 197.595 13.4767 205.01 13.5023C207.665 13.5117 210.266 13.9192 212.727 14.9749C215.312 16.0831 217.32 17.804 218.366 20.4867C219.042 22.2196 219.22 24.0199 219.051 25.8692C218.904 27.4852 218.471 29.0013 217.62 30.3868C216.57 32.0958 215.078 33.3111 213.293 34.1773C211.134 35.2253 208.829 35.7361 206.446 35.8568C202.317 36.0655 198.184 35.8722 194.868 35.9405ZM195.243 24.7526C195.243 26.8498 195.242 28.9471 195.243 31.0448C195.243 31.5876 195.244 31.5897 195.766 31.5897C198.056 31.5906 200.347 31.594 202.637 31.5867C203.176 31.585 203.714 31.5782 204.253 31.5044C206.501 31.198 207.823 30.0531 208.338 27.8449C208.786 25.9175 208.756 23.9674 208.429 22.0237C208.247 20.9369 207.846 19.9431 207.015 19.1729C206.076 18.302 204.909 17.976 203.682 17.9525C201.032 17.9026 198.381 17.9324 195.731 17.9098C195.332 17.9064 195.232 18.0395 195.235 18.4215C195.251 20.532 195.243 22.6425 195.243 24.7526Z" fill="#5F5F5F"/>
<path d="M3.00357 4.08659C3.5792 4.08744 3.47551 4.01319 3.58859 4.53421C4.82818 10.2461 6.1066 15.9491 7.56211 21.6107C7.94786 23.1115 8.37414 24.5998 9.00951 26.0199C9.97345 28.1765 11.6077 29.4532 13.9474 29.8176C14.6148 29.9217 15.2856 29.9683 15.9606 29.9977C16.928 30.0399 17.8949 30.0233 18.8593 29.9759C19.9828 29.9205 21.0935 29.7643 22.1355 29.2932C23.3598 28.7393 24.2738 27.856 24.9185 26.6873C25.5718 25.5027 25.9926 24.226 26.3484 22.9301C27.364 19.2314 28.2861 15.5092 29.1229 11.7657C29.6742 9.29885 30.2123 6.82905 30.7487 4.35883C30.7952 4.14505 30.8801 4.0708 31.1028 4.08019C32.3305 4.13011 33.5577 4.17961 34.7777 4.33749C34.9172 4.35542 34.9603 4.41857 34.9522 4.54658C34.904 5.28351 34.8579 6.02044 34.8092 6.75737C34.7747 7.28137 34.735 7.80537 34.7004 8.32936C34.6296 9.40595 34.5601 10.483 34.4922 11.56C34.4453 12.3042 34.4043 13.0484 34.3561 13.7925C34.2908 14.8055 34.2204 15.8186 34.1538 16.8316C34.1069 17.5399 34.0638 18.2487 34.0164 18.957C33.9486 19.9768 33.8786 20.9967 33.8107 22.0169C33.7651 22.7039 33.722 23.3914 33.6759 24.0784C33.6076 25.0982 33.5372 26.118 33.4685 27.1379C33.4224 27.8249 33.3806 28.5123 33.3316 29.1993C33.2667 30.1057 33.1946 31.0111 33.1284 31.9175C33.0806 32.5759 33.0401 33.2347 32.991 33.8931C32.9266 34.7636 32.8562 35.6341 32.7896 36.5046C32.7427 37.1203 32.6992 37.7365 32.6509 38.3522C32.5848 39.2014 32.5161 40.0501 32.4478 40.8993C32.3877 41.6494 32.3279 42.3992 32.2673 43.1493C32.2405 43.4817 32.2046 43.8137 32.1863 44.1465C32.1782 44.2925 32.1163 44.3394 31.978 44.3522C31.3 44.4154 30.6236 44.5063 29.9443 44.5506C28.8106 44.6249 27.6751 44.674 26.5405 44.7273C26.2136 44.7427 26.2149 44.7324 26.1334 44.4154C25.5573 42.1726 25.0218 39.9187 24.2623 37.7276C24.0459 37.1024 23.7929 36.4931 23.5108 35.894C22.9143 34.6275 21.9192 33.9192 20.5512 33.6815C19.1294 33.4348 17.6982 33.3679 16.2619 33.4348C15.3056 33.4792 14.3477 33.5492 13.4102 33.7673C12.2892 34.028 11.4686 34.6783 10.9387 35.696C10.3507 36.8242 9.97302 38.0322 9.60904 39.2441C9.09186 40.9659 8.66686 42.7124 8.21412 44.4516C8.15524 44.6787 8.05923 44.7439 7.8352 44.7337C6.74965 44.6842 5.66453 44.6334 4.57983 44.5707C3.82797 44.5272 3.07995 44.4563 2.33363 44.3573C2.1702 44.3356 2.12497 44.2682 2.11302 44.1137C2.0375 43.1374 1.94874 42.1619 1.87108 41.1856C1.80536 40.3646 1.75117 39.5432 1.68717 38.7222C1.60865 37.7105 1.52246 36.6992 1.4448 35.687C1.39316 35.0145 1.35305 34.3412 1.30355 33.6687C1.23869 32.7837 1.16829 31.8995 1.10385 31.0145C1.05436 30.3348 1.01168 29.6546 0.963466 28.9749C0.897753 28.0472 0.827773 27.12 0.763766 26.1927C0.713415 25.4631 0.670743 24.733 0.622098 24.0033C0.556812 23.0261 0.486831 22.0489 0.421971 21.0714C0.372046 20.3203 0.329375 19.5689 0.280303 18.8179C0.215443 17.8335 0.146317 16.8491 0.0810304 15.8646C0.0464668 15.3475 0.0170236 14.8299 -0.0166866 14.3127C-0.08368 13.2856 -0.153233 12.2585 -0.218947 11.2314C-0.268018 10.4591 -0.310263 9.6863 -0.359762 8.91396C-0.424622 7.90095 -0.493748 6.88794 -0.560315 5.87493C-0.589758 5.42859 -0.615361 4.98183 -0.647364 4.53591C-0.657605 4.39553 -0.594452 4.35072 -0.463452 4.33835C0.0524404 4.28928 0.5662 4.21801 1.08252 4.18174C1.72685 4.13523 2.37332 4.11603 3.00357 4.08659Z" fill="#5F5F5F"/>
</svg>
